/* XPM */
static char * geierlein_xpm[] = {
"48 48 838 2",
"  	c None",
". 	c #7E7C89",
"+ 	c #7A7886",
"@ 	c #6B6977",
"# 	c #878594",
"$ 	c #BDBBC8",
"% 	c #9B9AA1",
"& 	c #656370",
"* 	c #363441",
"= 	c #151321",
"- 	c #0F0D1B",
"; 	c #1B1828",
"> 	c #3C3A48",
", 	c #9795A1",
"' 	c #B5B3BD",
") 	c #8E8D95",
"! 	c #5C5B63",
"~ 	c #5E5D65",
"{ 	c #8C8B91",
"] 	c #595860",
"^ 	c #14111D",
"/ 	c #0C0A17",
"( 	c #110F1D",
"_ 	c #100E1C",
": 	c #0E0C19",
"< 	c #26242F",
"[ 	c #403F48",
"} 	c #2A2930",
"| 	c #3C3B43",
"1 	c #99989F",
"2 	c #4E4D52",
"3 	c #16151B",
"4 	c #07060E",
"5 	c #100E1A",
"6 	c #110F1B",
"7 	c #0F0D19",
"8 	c #0D0B18",
"9 	c #100E18",
"0 	c #191820",
"a 	c #0D0C13",
"b 	c #1E1D23",
"c 	c #8F8E94",
"d 	c #929294",
"e 	c #252527",
"f 	c #131217",
"g 	c #18171E",
"h 	c #100F16",
"i 	c #111018",
"j 	c #0C0B11",
"k 	c #121115",
"l 	c #1E1E20",
"m 	c #969698",
"n 	c #505050",
"o 	c #121212",
"p 	c #0F0F11",
"q 	c #111113",
"r 	c #0E0D12",
"s 	c #07060A",
"t 	c #151418",
"u 	c #0D0D0E",
"v 	c #080807",
"w 	c #4E4E4C",
"x 	c #9C9C9B",
"y 	c #323232",
"z 	c #0D0D0D",
"A 	c #0B0B0B",
"B 	c #0F0F0E",
"C 	c #0E0E0E",
"D 	c #080808",
"E 	c #0F100F",
"F 	c #141414",
"G 	c #151512",
"H 	c #191A14",
"I 	c #83847D",
"J 	c #959595",
"K 	c #1D1D1B",
"L 	c #131311",
"M 	c #0E0F0C",
"N 	c #161613",
"O 	c #0E0E0C",
"P 	c #10100E",
"Q 	c #141411",
"R 	c #10110B",
"S 	c #191A13",
"T 	c #9D9D95",
"U 	c #727477",
"V 	c #111314",
"W 	c #101310",
"X 	c #090C07",
"Y 	c #0D0F09",
"Z 	c #15160F",
"` 	c #0E0F09",
" .	c #0E0E09",
"..	c #15130F",
"+.	c #15130E",
"@.	c #424138",
"#.	c #B7B6AE",
"$.	c #4E5157",
"%.	c #0A0E12",
"&.	c #0E1310",
"*.	c #0B1009",
"=.	c #0E1107",
"-.	c #14160C",
";.	c #15150D",
">.	c #13110C",
",.	c #191512",
"'.	c #191612",
").	c #74716B",
"!.	c #898B91",
"~.	c #25272C",
"{.	c #161819",
"].	c #12150F",
"^.	c #191A10",
"/.	c #1C1D10",
"(.	c #131406",
"_.	c #0F0E03",
":.	c #14100B",
"<.	c #191513",
"[.	c #201C1A",
"}.	c #8E8B86",
"|.	c #79777D",
"1.	c #171516",
"2.	c #161210",
"3.	c #171309",
"4.	c #161106",
"5.	c #161205",
"6.	c #1B1705",
"7.	c #1C170A",
"8.	c #17140C",
"9.	c #14100D",
"0.	c #1C1917",
"a.	c #92918D",
"b.	c #A5A4A9",
"c.	c #342E31",
"d.	c #201816",
"e.	c #1E140B",
"f.	c #281C0C",
"g.	c #281C09",
"h.	c #211702",
"i.	c #181000",
"j.	c #140E05",
"k.	c #161107",
"l.	c #17140F",
"m.	c #161512",
"n.	c #767775",
"o.	c #AFB4B8",
"p.	c #575558",
"q.	c #28201F",
"r.	c #53463E",
"s.	c #7F6F5F",
"t.	c #9A8771",
"u.	c #AD9B80",
"v.	c #948566",
"w.	c #483B21",
"x.	c #130A00",
"y.	c #160F02",
"z.	c #1E1911",
"A.	c #13120E",
"B.	c #545554",
"C.	c #93A1A6",
"D.	c #41474B",
"E.	c #3D3A3B",
"F.	c #867975",
"G.	c #B5A295",
"H.	c #CBB39F",
"I.	c #CEB597",
"J.	c #E3CAA7",
"K.	c #D2BB96",
"L.	c #7F6C4B",
"M.	c #34260C",
"N.	c #1C1100",
"O.	c #181105",
"P.	c #110F08",
"Q.	c #2B2D2B",
"R.	c #AAAEAF",
"S.	c #6C7B80",
"T.	c #2D3A3F",
"U.	c #5F6567",
"V.	c #A5A19F",
"W.	c #AFA099",
"X.	c #C1A899",
"Y.	c #CBAD93",
"Z.	c #DABB97",
"`.	c #DDBD93",
" +	c #DDC095",
".+	c #C9B088",
"++	c #867351",
"@+	c #3C2C12",
"#+	c #1E1201",
"$+	c #19150B",
"%+	c #141512",
"&+	c #989B9A",
"*+	c #747B81",
"=+	c #19272C",
"-+	c #667376",
";+	c #97999B",
">+	c #9D9794",
",+	c #AD9B92",
"'+	c #C7AC98",
")+	c #D0AE91",
"!+	c #D4B088",
"~+	c #DDB98A",
"{+	c #D7B383",
"]+	c #CEAD81",
"^+	c #B99D76",
"/+	c #76603F",
"(+	c #35230B",
"_+	c #1C1304",
":+	c #1A1913",
"<+	c #5E5F5C",
"[+	c #777C82",
"}+	c #20282E",
"|+	c #5B6669",
"1+	c #80898A",
"2+	c #959696",
"3+	c #948B86",
"4+	c #A28E84",
"5+	c #BDA08C",
"6+	c #CDA988",
"7+	c #CBA57A",
"8+	c #CCA471",
"9+	c #C59C68",
"0+	c #CDA773",
"a+	c #DEBE8F",
"b+	c #BFA27A",
"c+	c #6D5131",
"d+	c #2C1B07",
"e+	c #150F05",
"f+	c #484640",
"g+	c #747881",
"h+	c #1F262E",
"i+	c #52595F",
"j+	c #8B9495",
"k+	c #919595",
"l+	c #93908F",
"m+	c #8F847F",
"n+	c #958376",
"o+	c #A78A75",
"p+	c #B3906F",
"q+	c #B78F63",
"r+	c #C79E69",
"s+	c #D9AE76",
"t+	c #DBB279",
"u+	c #E4BB87",
"v+	c #E6BE8F",
"w+	c #B48F67",
"x+	c #634A2E",
"y+	c #1C1002",
"z+	c #271F16",
"A+	c #7E838C",
"B+	c #343841",
"C+	c #707780",
"D+	c #8E959A",
"E+	c #898E8C",
"F+	c #7A7A77",
"G+	c #6D6966",
"H+	c #6F625C",
"I+	c #7A655A",
"J+	c #8A6F59",
"K+	c #9A7857",
"L+	c #BB966A",
"M+	c #D3AB76",
"N+	c #EEC186",
"O+	c #E8BB7D",
"P+	c #D9AB6F",
"Q+	c #E7B880",
"R+	c #DFB17F",
"S+	c #9E7C5A",
"T+	c #392614",
"U+	c #221609",
"V+	c #767982",
"W+	c #2D343E",
"X+	c #59606A",
"Y+	c #646B75",
"Z+	c #5D6164",
"`+	c #474743",
" @	c #403C36",
".@	c #48403A",
"+@	c #63554F",
"@@	c #867267",
"#@	c #AA8F7B",
"$@	c #C8A889",
"%@	c #D9B489",
"&@	c #D6AE79",
"*@	c #E2B679",
"=@	c #EBBA79",
"-@	c #E7B471",
";@	c #EEB978",
">@	c #EAB579",
",@	c #BE966A",
"'@	c #5F462E",
")@	c #2E1D0B",
"!@	c #5F646D",
"~@	c #20252E",
"{@	c #282F39",
"]@	c #252C36",
"^@	c #161D28",
"/@	c #1E2125",
"(@	c #3C3832",
"_@	c #574F46",
":@	c #827870",
"<@	c #AA9C95",
"[@	c #BCA99F",
"}@	c #C0A795",
"|@	c #C2A387",
"1@	c #CFAC82",
"2@	c #D5AD78",
"3@	c #E1B375",
"4@	c #EDBC78",
"5@	c #F3BB76",
"6@	c #F1B56F",
"7@	c #F0B472",
"8@	c #DAAB7B",
"9@	c #83664B",
"0@	c #49341F",
"a@	c #74797F",
"b@	c #1F252B",
"c@	c #131A21",
"d@	c #141922",
"e@	c #0B1019",
"f@	c #313640",
"g@	c #5A5B5E",
"h@	c #8A8279",
"i@	c #9A8E81",
"j@	c #A99B91",
"k@	c #B09F95",
"l@	c #B39E91",
"m@	c #B89D8A",
"n@	c #C0A184",
"o@	c #CAA87E",
"p@	c #DDB680",
"q@	c #E5B36D",
"r@	c #F5BB74",
"s@	c #F3B66D",
"t@	c #F2B26C",
"u@	c #EBB984",
"v@	c #A68666",
"w@	c #6A5039",
"x@	c #A3A9B0",
"y@	c #474D54",
"z@	c #1C2128",
"A@	c #11151A",
"B@	c #0E0F15",
"C@	c #212125",
"D@	c #514F53",
"E@	c #757275",
"F@	c #948C8A",
"G@	c #9B8C7D",
"H@	c #AA9582",
"I@	c #B39D8A",
"J@	c #B69E88",
"K@	c #B89C82",
"L@	c #BD9D7E",
"M@	c #C4A17A",
"N@	c #D1AB7B",
"O@	c #DBB079",
"P@	c #DCAD70",
"Q@	c #E0AD6A",
"R@	c #EDB66F",
"S@	c #F1B66E",
"T@	c #EDB36D",
"U@	c #EBBB7F",
"V@	c #BA986C",
"W@	c #8F7453",
"X@	c #5C646F",
"Y@	c #323A45",
"Z@	c #111921",
"`@	c #11171E",
" #	c #12151A",
".#	c #212024",
"+#	c #4A4748",
"@#	c #7C7573",
"##	c #918886",
"$#	c #94867D",
"%#	c #A18B78",
"&#	c #AA9078",
"*#	c #B2967B",
"=#	c #B8997B",
"-#	c #BC9B78",
";#	c #C29E75",
">#	c #CAA172",
",#	c #D5A873",
"'#	c #D9AA70",
")#	c #DDAC6F",
"!#	c #E2B06E",
"~#	c #E9B36F",
"{#	c #ECB56D",
"]#	c #ECB56F",
"^#	c #E7BA78",
"/#	c #BE9D66",
"(#	c #AE946D",
"_#	c #4E5760",
":#	c #252E37",
"<#	c #161F29",
"[#	c #071019",
"}#	c #090E16",
"|#	c #191B21",
"1#	c #3D3C40",
"2#	c #696665",
"3#	c #88807D",
"4#	c #8D8381",
"5#	c #8D7F76",
"6#	c #9A8370",
"7#	c #A38872",
"8#	c #AC8F75",
"9#	c #B39374",
"0#	c #B89471",
"a#	c #BF976F",
"b#	c #C89B6C",
"c#	c #D2A16D",
"d#	c #D8A56B",
"e#	c #DEA96C",
"f#	c #E5AE6C",
"g#	c #EBB16D",
"h#	c #ECB269",
"i#	c #EBB169",
"j#	c #E2B270",
"k#	c #B99862",
"l#	c #CAB18A",
"m#	c #373E46",
"n#	c #1A2129",
"o#	c #09121A",
"p#	c #111821",
"q#	c #090F17",
"r#	c #0A0E14",
"s#	c #181A1E",
"t#	c #414044",
"u#	c #797471",
"v#	c #7C7471",
"w#	c #83756C",
"x#	c #8E7A6A",
"y#	c #9A806B",
"z#	c #A4876F",
"A#	c #AC8B6E",
"B#	c #B38D6C",
"C#	c #BB9169",
"D#	c #C49567",
"E#	c #CB9963",
"F#	c #D39C62",
"G#	c #DCA364",
"H#	c #E4A864",
"I#	c #E9AB65",
"J#	c #E9AB62",
"K#	c #DBAC6A",
"L#	c #BD9F6B",
"M#	c #DFCFAA",
"N#	c #2B3036",
"O#	c #060B11",
"P#	c #10151B",
"Q#	c #1C232A",
"R#	c #01050E",
"S#	c #0D1116",
"T#	c #14161B",
"U#	c #383739",
"V#	c #5B5857",
"W#	c #66615E",
"X#	c #6C6461",
"Y#	c #776C65",
"Z#	c #897667",
"`#	c #947B68",
" $	c #9F836D",
".$	c #A9876D",
"+$	c #AF8A69",
"@$	c #B88D66",
"#$	c #C39364",
"$$	c #C7915A",
"%$	c #CF9559",
"&$	c #DA9D5F",
"*$	c #E3A25E",
"=$	c #E7A45E",
"-$	c #E8A45A",
";$	c #E8A55B",
">$	c #DDAA6B",
",$	c #D2B485",
"'$	c #EEE5C4",
")$	c #36393E",
"!$	c #161B1F",
"~$	c #1D2226",
"{$	c #0F1319",
"]$	c #080C11",
"^$	c #1C2026",
"/$	c #090C10",
"($	c #0D0F13",
"_$	c #141417",
":$	c #302F30",
"<$	c #4D4A49",
"[$	c #595552",
"}$	c #635E5B",
"|$	c #716760",
"1$	c #837167",
"2$	c #8E7768",
"3$	c #997E6C",
"4$	c #A2826A",
"5$	c #A98464",
"6$	c #B58762",
"7$	c #BF8C5F",
"8$	c #C38B56",
"9$	c #CC9055",
"0$	c #D99858",
"a$	c #E09D59",
"b$	c #E39D57",
"c$	c #E59F56",
"d$	c #E8A35A",
"e$	c #DBA86D",
"f$	c #DFC39A",
"g$	c #FAF1D6",
"h$	c #393D41",
"i$	c #1F2326",
"j$	c #05090C",
"k$	c #14181B",
"l$	c #070B0F",
"m$	c #07080D",
"n$	c #141519",
"o$	c #0D0E10",
"p$	c #101012",
"q$	c #211F21",
"r$	c #393535",
"s$	c #4C4745",
"t$	c #5B5754",
"u$	c #69625C",
"v$	c #77685F",
"w$	c #826E60",
"x$	c #8D7563",
"y$	c #967760",
"z$	c #9F795A",
"A$	c #A97C56",
"B$	c #B38053",
"C$	c #BD8250",
"D$	c #C5884E",
"E$	c #D38F51",
"F$	c #D79250",
"G$	c #DA934F",
"H$	c #DE9551",
"I$	c #E29C58",
"J$	c #D4A26C",
"K$	c #E4CDAA",
"L$	c #565B60",
"M$	c #13181B",
"N$	c #0F1316",
"O$	c #0A0D0E",
"P$	c #171A1D",
"Q$	c #18191A",
"R$	c #0F1011",
"S$	c #0C0C0E",
"T$	c #101010",
"U$	c #0D0C0C",
"V$	c #121111",
"W$	c #24201F",
"X$	c #3B3736",
"Y$	c #514D4A",
"Z$	c #5F5A56",
"`$	c #6B5D55",
" %	c #756256",
".%	c #81695B",
"+%	c #8A6C57",
"@%	c #916D50",
"#%	c #9D714E",
"$%	c #A7744A",
"%%	c #B27847",
"&%	c #BC7E49",
"*%	c #C7864B",
"=%	c #CE8B4D",
"-%	c #D08C4C",
";%	c #D38F4E",
">%	c #D89656",
",%	c #D2A372",
"'%	c #E8D8BB",
")%	c #697075",
"!%	c #12171C",
"~%	c #161A1D",
"{%	c #191B1C",
"]%	c #151616",
"^%	c #111112",
"/%	c #0E0E0D",
"(%	c #0B0B0A",
"_%	c #0D0B0B",
":%	c #0F0E0D",
"<%	c #11100E",
"[%	c #141311",
"}%	c #21201E",
"|%	c #353432",
"1%	c #484340",
"2%	c #5C504A",
"3%	c #615148",
"4%	c #725D50",
"5%	c #7B604C",
"6%	c #7A593D",
"7%	c #906644",
"8%	c #96653D",
"9%	c #986234",
"0%	c #A76D3B",
"a%	c #B87B46",
"b%	c #C3844B",
"c%	c #C7884F",
"d%	c #CD8F54",
"e%	c #D2975E",
"f%	c #E1B790",
"g%	c #43494C",
"h%	c #21262A",
"i%	c #202325",
"j%	c #1C1E1D",
"k%	c #151615",
"l%	c #0D0B08",
"m%	c #0F0D0A",
"n%	c #100D0A",
"o%	c #0F0C0A",
"p%	c #0E0D0A",
"q%	c #0B0A08",
"r%	c #0E0D0B",
"s%	c #1D1C1B",
"t%	c #302D2A",
"u%	c #453D38",
"v%	c #50433A",
"w%	c #5B4A3E",
"x%	c #634C3A",
"y%	c #65472D",
"z%	c #6B4424",
"A%	c #6D411B",
"B%	c #7F4D23",
"C%	c #956032",
"D%	c #AB7646",
"E%	c #B78150",
"F%	c #BA8453",
"G%	c #C38E5C",
"H%	c #D3A272",
"I%	c #EACCAF",
"J%	c #96989C",
"K%	c #6A6E71",
"L%	c #2B2E30",
"M%	c #1E2224",
"N%	c #1D2023",
"O%	c #181A1D",
"P%	c #131415",
"Q%	c #111311",
"R%	c #10100F",
"S%	c #0F0E0B",
"T%	c #110E0B",
"U%	c #120E0A",
"V%	c #140F0B",
"W%	c #15100C",
"X%	c #100B08",
"Y%	c #0C0804",
"Z%	c #0F0E09",
"`%	c #131210",
" &	c #0F0F0D",
".&	c #0E0F0F",
"+&	c #151412",
"@&	c #25201B",
"#&	c #372C23",
"$&	c #3E2F22",
"%&	c #442F1C",
"&&	c #4A2F16",
"*&	c #462409",
"=&	c #4E2805",
"-&	c #71451F",
";&	c #8B5D34",
">&	c #A87C53",
",&	c #B88B63",
"'&	c #B0875E",
")&	c #BC936C",
"!&	c #EAC7A4",
"~&	c #A8A9AE",
"{&	c #3E3F43",
"]&	c #535458",
"^&	c #1E1F21",
"/&	c #171819",
"(&	c #151717",
"_&	c #111212",
":&	c #080907",
"<&	c #090A07",
"[&	c #0C0B09",
"}&	c #0E0D09",
"|&	c #110E09",
"1&	c #120D08",
"2&	c #130D07",
"3&	c #140E08",
"4&	c #100B06",
"5&	c #090500",
"6&	c #0A0804",
"7&	c #0C0C0A",
"8&	c #0A0C0B",
"9&	c #0D0E0C",
"0&	c #0C0903",
"a&	c #281F17",
"b&	c #312418",
"c&	c #281805",
"d&	c #2E1800",
"e&	c #311400",
"f&	c #502E10",
"g&	c #765230",
"h&	c #926D4A",
"i&	c #9B7956",
"j&	c #997857",
"k&	c #B29475",
"l&	c #E7CEB0",
"m&	c #8E9198",
"n&	c #73737A",
"o&	c #434449",
"p&	c #27282B",
"q&	c #1F2022",
"r&	c #111110",
"s&	c #121311",
"t&	c #151513",
"u&	c #121211",
"v&	c #1E1E1C",
"w&	c #1B1A19",
"x&	c #141310",
"y&	c #0D0C07",
"z&	c #0C0802",
"A&	c #0C0700",
"B&	c #0F0800",
"C&	c #0B0400",
"D&	c #0B0600",
"E&	c #141009",
"F&	c #110F0B",
"G&	c #0A0A06",
"H&	c #070906",
"I&	c #080B0C",
"J&	c #0C0E0C",
"K&	c #15140E",
"L&	c #161006",
"M&	c #1B1108",
"N&	c #190B00",
"O&	c #331E08",
"P&	c #3A2007",
"Q&	c #4D3013",
"R&	c #614324",
"S&	c #755839",
"T&	c #91775B",
"U&	c #B59D84",
"V&	c #E3D1BB",
"W&	c #BEC2CF",
"X&	c #8C909B",
"Y&	c #535762",
"Z&	c #2A2E37",
"`&	c #191C23",
" *	c #1B1D22",
".*	c #151619",
"+*	c #141517",
"@*	c #121113",
"#*	c #0B0909",
"$*	c #23221F",
"%*	c #666562",
"&*	c #B1B1AD",
"**	c #C1C1BF",
"=*	c #B7B7B5",
"-*	c #A5A4A0",
";*	c #908F8A",
">*	c #837E77",
",*	c #79746B",
"'*	c #766E66",
")*	c #7C746B",
"!*	c #837E75",
"~*	c #736E67",
"{*	c #504E49",
"]*	c #393A35",
"^*	c #272825",
"/*	c #181C1D",
"(*	c #080A08",
"_*	c #15150F",
":*	c #0B0700",
"<*	c #1E1509",
"[*	c #1B0D00",
"}*	c #35230C",
"|*	c #422D13",
"1*	c #50371B",
"2*	c #6A5035",
"3*	c #836B52",
"4*	c #C0AC95",
"5*	c #32373E",
"6*	c #181D22",
"7*	c #1D2026",
"8*	c #1E2327",
"9*	c #161A1E",
"0*	c #121316",
"a*	c #131316",
"b*	c #0F0F10",
"c*	c #373736",
"d*	c #8E8D8B",
"e*	c #CBCDCC",
"f*	c #7D7F7E",
"g*	c #1F211F",
"h*	c #0D0E08",
"i*	c #403E36",
"j*	c #787368",
"k*	c #493E31",
"l*	c #322514",
"m*	c #574734",
"n*	c #998771",
"o*	c #BDAB97",
"p*	c #EEDCCB",
"q*	c #191C13",
"r*	c #1D2018",
"s*	c #1B1E16",
"t*	c #12150D",
"u*	c #11140E",
"v*	c #20201B",
"w*	c #5D5E58",
"x*	c #ADAEA9",
"y*	c #B1B1B1",
"z*	c #70706E",
"A*	c #6C6C69",
"B*	c #DBD8D4",
"C*	c #D0CCC8",
"D*	c #79756E",
"E*	c #58534C",
"F*	c #A9A39C",
"G*	c #F1EBE5",
"H*	c #1F2210",
"I*	c #1E2012",
"J*	c #1F2112",
"K*	c #3F4134",
"L*	c #8B8D82",
"M*	c #D1D2CA",
"N*	c #969696",
"O*	c #787878",
"P*	c #DFDFDF",
"Q*	c #F5F5F5",
"R*	c #B3B3B3",
"S*	c #646464",
"T*	c #8D8D8D",
"U*	c #232517",
"V*	c #696B5E",
"W*	c #BFC1B4",
"X*	c #ABABAB",
"Y*	c #838383",
"Z*	c #D7D7D7",
"`*	c #FFFFFF",
" =	c #D1D1D1",
".=	c #3A3A3A",
"+=	c #AEB0A3",
"@=	c #A4A4A4",
"#=	c #6F6F6F",
"$=	c #9E9E9E",
"%=	c #5B5B5B",
"&=	c #3D3D3D",
"*=	c #111111",
"==	c #010101",
"                                                                                                ",
"                                                                            . + @ # $           ",
"                                                                        % & * = - ; > , ' ) ! ~ ",
"                                                                      { ] ^ / ( _ ( : < [ } | 1 ",
"                                                                      2 3 4 5 6 7 8 9 0 a b c   ",
"                                                                    d e f 3 g h h i j k l m     ",
"                                                                    n o p q r s r t u v w       ",
"                                                                  x y z A B C D E F G H I       ",
"                                                                  J K L M L N O P Q R S T       ",
"                                                                  U V W X Y Z `  ...+.@.#.      ",
"                                                                  $.%.&.*.=.-.;.>.,.'.).        ",
"                                                                !.~.{.].^./.(._.:.<.[.}.        ",
"                                                                |.1.2.3.4.5.6.7.8.9.0.a.        ",
"                                                              b.c.d.e.f.g.h.i.j.k.l.m.n.        ",
"                                                            o.p.q.r.s.t.u.v.w.x.y.z.A.B.        ",
"                                                          C.D.E.F.G.H.I.J.K.L.M.N.O.P.Q.R.      ",
"                                                        S.T.U.V.W.X.Y.Z.`. +.+++@+#+$+%+&+      ",
"                                                      *+=+-+;+>+,+'+)+!+~+{+]+^+/+(+_+:+<+      ",
"                                                    [+}+|+1+2+3+4+5+6+7+8+9+0+a+b+c+d+e+f+      ",
"                                                  g+h+i+j+k+l+m+n+o+p+q+r+s+t+u+v+w+x+y+z+      ",
"                                                A+B+C+D+E+F+G+H+I+J+K+L+M+N+O+P+Q+R+S+T+U+      ",
"                                              V+W+X+Y+Z+`+ @.@+@@@#@$@%@&@*@=@-@;@>@,@'@)@      ",
"                                            !@~@{@]@^@/@(@_@:@<@[@}@|@1@2@3@4@5@6@7@8@9@0@      ",
"                                          a@b@c@d@e@f@g@h@i@j@k@l@m@n@o@p@3@q@r@s@t@u@v@w@      ",
"                                      x@y@z@A@B@C@D@E@F@G@H@I@J@K@L@M@N@O@P@Q@R@S@T@U@V@W@      ",
"                                    X@Y@Z@`@ #.#+#@###$#%#&#*#=#-#;#>#,#'#)#!#~#{#]#^#/#(#      ",
"                                  _#:#<#[#}#|#1#2#3#4#5#6#7#8#9#0#a#b#c#d#e#f#g#h#i#j#k#l#      ",
"                                m#n#o#p#q#r#s#t#2#u#v#w#x#y#z#A#B#C#D#E#F#G#H#I#J#J#K#L#M#      ",
"                              N#O#P#Q#R#P#S#T#U#V#W#X#Y#Z#`# $.$+$@$#$$$%$&$*$=$-$;$>$,$'$      ",
"                            )$!$~${$]$^$/$($_$:$<$[$}$|$1$2$3$4$5$6$7$8$9$0$a$b$c$d$e$f$g$      ",
"                          h$i$j$k$l$j$m$n$o$p$q$r$s$t$u$v$w$x$y$z$A$B$C$D$E$F$G$H$I$J$K$        ",
"                        L$M$N$N$O$P$Q$R$S$T$U$V$W$X$Y$Z$`$ %.%+%@%#%$%%%&%*%=%-%;%>%,%'%        ",
"                      )%!%~%{%Q$]%^%/%(%_%:%<%<%[%}%|%1%2%3%4%5%6%7%8%9%0%a%b%c%d%e%f%          ",
"                    g%!$h%i%j%k%B (%l%m%n%o%m%p%q%r%s%t%u%v%w%x%y%z%A%B%C%D%E%F%G%H%I%          ",
"              J%K%L%M%N%O%P%Q%R%S%T%U%V%W%X%Y%Z%`% &.&+&@&#&$&%&&&*&=&-&;&>&,&'&)&!&            ",
"          ~&{&]&^&/&(&_&^%:&<&[&}&|&1&2&3&4&5&6&r%7&8&9&0&a&b&c&d&e&f&g&h&i&j&k&l&              ",
"      m&n&o&p&q&/&r&s&t&u&v&w&x&y&z&A&B&C&D&E&F&G&H&I&J&K&L&M&N&O&P&Q&R&S&T&U&V&                ",
"W&X&Y&Z&`& *.*+*@*#*$*%*&***=*-*;*>*,*'*)*!*~*{*]*^*/*(*_*:*<*[*}*|*1*2*3*4*                    ",
"5*6*7*8*9*0*a*b*c*d*                              e*f*g*h*i*j*k*l*m*n*o*p*                      ",
"q*r*s*t*u*v*w*x*                                      y*z*A*B*C*D*E*F*G*                        ",
"H*I*J*K*L*M*                                              N*O*P*Q*R*S*T*                        ",
"U*V*W*                                                      X*Y*Z*`* =.=                        ",
"+=                                                            @=#=$=%=&=                        ",
"                                                                  *===                          ",
"                                                                                                ",
"                                                                                                ",
"                                                                                                ",
"                                                                                                "};
