/* XPM */
static char * geierlein_xpm[] = {
"48 48 904 2",
"  	c None",
". 	c #F0EFF4",
"+ 	c #F0EEFB",
"@ 	c #FCFAFF",
"# 	c #D6D4E1",
"$ 	c #7E7C89",
"% 	c #7A7886",
"& 	c #6B6977",
"* 	c #878594",
"= 	c #BDBBC8",
"- 	c #F6F4FF",
"; 	c #9B9AA1",
"> 	c #656370",
", 	c #363441",
"' 	c #151321",
") 	c #0F0D1B",
"! 	c #1B1828",
"~ 	c #3C3A48",
"{ 	c #9795A1",
"] 	c #B5B3BD",
"^ 	c #8E8D95",
"/ 	c #5C5B63",
"( 	c #5E5D65",
"_ 	c #8C8B91",
": 	c #595860",
"< 	c #14111D",
"[ 	c #0C0A17",
"} 	c #110F1D",
"| 	c #100E1C",
"1 	c #0E0C19",
"2 	c #26242F",
"3 	c #403F48",
"4 	c #2A2930",
"5 	c #3C3B43",
"6 	c #99989F",
"7 	c #CBCACF",
"8 	c #4E4D52",
"9 	c #16151B",
"0 	c #07060E",
"a 	c #100E1A",
"b 	c #110F1B",
"c 	c #0F0D19",
"d 	c #0D0B18",
"e 	c #100E18",
"f 	c #191820",
"g 	c #0D0C13",
"h 	c #1E1D23",
"i 	c #8F8E94",
"j 	c #FFFFFF",
"k 	c #929294",
"l 	c #252527",
"m 	c #131217",
"n 	c #18171E",
"o 	c #100F16",
"p 	c #111018",
"q 	c #0C0B11",
"r 	c #121115",
"s 	c #1E1E20",
"t 	c #969698",
"u 	c #D3D3D3",
"v 	c #505050",
"w 	c #121212",
"x 	c #0F0F11",
"y 	c #111113",
"z 	c #0E0D12",
"A 	c #07060A",
"B 	c #151418",
"C 	c #0D0D0E",
"D 	c #080807",
"E 	c #4E4E4C",
"F 	c #EFEFED",
"G 	c #9C9C9B",
"H 	c #323232",
"I 	c #0D0D0D",
"J 	c #0B0B0B",
"K 	c #0F0F0E",
"L 	c #0E0E0E",
"M 	c #080808",
"N 	c #0F100F",
"O 	c #141414",
"P 	c #151512",
"Q 	c #191A14",
"R 	c #83847D",
"S 	c #F1F2ED",
"T 	c #959595",
"U 	c #1D1D1B",
"V 	c #131311",
"W 	c #0E0F0C",
"X 	c #161613",
"Y 	c #0E0E0C",
"Z 	c #10100E",
"` 	c #141411",
" .	c #10110B",
"..	c #191A13",
"+.	c #9D9D95",
"@.	c #F2F3F7",
"#.	c #727477",
"$.	c #111314",
"%.	c #101310",
"&.	c #090C07",
"*.	c #0D0F09",
"=.	c #15160F",
"-.	c #0E0F09",
";.	c #0E0E09",
">.	c #15130F",
",.	c #15130E",
"'.	c #424138",
").	c #B7B6AE",
"!.	c #F2F2E9",
"~.	c #D2D5DA",
"{.	c #4E5157",
"].	c #0A0E12",
"^.	c #0E1310",
"/.	c #0B1009",
"(.	c #0E1107",
"_.	c #14160C",
":.	c #15150D",
"<.	c #13110C",
"[.	c #191512",
"}.	c #191612",
"|.	c #74716B",
"1.	c #898B91",
"2.	c #25272C",
"3.	c #161819",
"4.	c #12150F",
"5.	c #191A10",
"6.	c #1C1D10",
"7.	c #131406",
"8.	c #0F0E03",
"9.	c #14100B",
"0.	c #191513",
"a.	c #201C1A",
"b.	c #8E8B86",
"c.	c #79777D",
"d.	c #171516",
"e.	c #161210",
"f.	c #171309",
"g.	c #161106",
"h.	c #161205",
"i.	c #1B1705",
"j.	c #1C170A",
"k.	c #17140C",
"l.	c #14100D",
"m.	c #1C1917",
"n.	c #92918D",
"o.	c #EEF8F7",
"p.	c #A5A4A9",
"q.	c #342E31",
"r.	c #201816",
"s.	c #1E140B",
"t.	c #281C0C",
"u.	c #281C09",
"v.	c #211702",
"w.	c #181000",
"x.	c #140E05",
"y.	c #161107",
"z.	c #17140F",
"A.	c #161512",
"B.	c #767775",
"C.	c #EDFBFD",
"D.	c #AFB4B8",
"E.	c #575558",
"F.	c #28201F",
"G.	c #53463E",
"H.	c #7F6F5F",
"I.	c #9A8771",
"J.	c #AD9B80",
"K.	c #948566",
"L.	c #483B21",
"M.	c #130A00",
"N.	c #160F02",
"O.	c #1E1911",
"P.	c #13120E",
"Q.	c #545554",
"R.	c #93A1A6",
"S.	c #41474B",
"T.	c #3D3A3B",
"U.	c #867975",
"V.	c #B5A295",
"W.	c #CBB39F",
"X.	c #CEB597",
"Y.	c #E3CAA7",
"Z.	c #D2BB96",
"`.	c #7F6C4B",
" +	c #34260C",
".+	c #1C1100",
"++	c #181105",
"@+	c #110F08",
"#+	c #2B2D2B",
"$+	c #AAAEAF",
"%+	c #6C7B80",
"&+	c #2D3A3F",
"*+	c #5F6567",
"=+	c #A5A19F",
"-+	c #AFA099",
";+	c #C1A899",
">+	c #CBAD93",
",+	c #DABB97",
"'+	c #DDBD93",
")+	c #DDC095",
"!+	c #C9B088",
"~+	c #867351",
"{+	c #3C2C12",
"]+	c #1E1201",
"^+	c #19150B",
"/+	c #141512",
"(+	c #989B9A",
"_+	c #E0E5E9",
":+	c #747B81",
"<+	c #19272C",
"[+	c #667376",
"}+	c #97999B",
"|+	c #9D9794",
"1+	c #AD9B92",
"2+	c #C7AC98",
"3+	c #D0AE91",
"4+	c #D4B088",
"5+	c #DDB98A",
"6+	c #D7B383",
"7+	c #CEAD81",
"8+	c #B99D76",
"9+	c #76603F",
"0+	c #35230B",
"a+	c #1C1304",
"b+	c #1A1913",
"c+	c #5E5F5C",
"d+	c #E7EBEE",
"e+	c #777C82",
"f+	c #20282E",
"g+	c #5B6669",
"h+	c #80898A",
"i+	c #959696",
"j+	c #948B86",
"k+	c #A28E84",
"l+	c #BDA08C",
"m+	c #CDA988",
"n+	c #CBA57A",
"o+	c #CCA471",
"p+	c #C59C68",
"q+	c #CDA773",
"r+	c #DEBE8F",
"s+	c #BFA27A",
"t+	c #6D5131",
"u+	c #2C1B07",
"v+	c #150F05",
"w+	c #484640",
"x+	c #E8EDF4",
"y+	c #747881",
"z+	c #1F262E",
"A+	c #52595F",
"B+	c #8B9495",
"C+	c #919595",
"D+	c #93908F",
"E+	c #8F847F",
"F+	c #958376",
"G+	c #A78A75",
"H+	c #B3906F",
"I+	c #B78F63",
"J+	c #C79E69",
"K+	c #D9AE76",
"L+	c #DBB279",
"M+	c #E4BB87",
"N+	c #E6BE8F",
"O+	c #B48F67",
"P+	c #634A2E",
"Q+	c #1C1002",
"R+	c #271F16",
"S+	c #C7C2BA",
"T+	c #7E838C",
"U+	c #343841",
"V+	c #707780",
"W+	c #8E959A",
"X+	c #898E8C",
"Y+	c #7A7A77",
"Z+	c #6D6966",
"`+	c #6F625C",
" @	c #7A655A",
".@	c #8A6F59",
"+@	c #9A7857",
"@@	c #BB966A",
"#@	c #D3AB76",
"$@	c #EEC186",
"%@	c #E8BB7D",
"&@	c #D9AB6F",
"*@	c #E7B880",
"=@	c #DFB17F",
"-@	c #9E7C5A",
";@	c #392614",
">@	c #221609",
",@	c #B9B0A5",
"'@	c #767982",
")@	c #2D343E",
"!@	c #59606A",
"~@	c #646B75",
"{@	c #5D6164",
"]@	c #474743",
"^@	c #403C36",
"/@	c #48403A",
"(@	c #63554F",
"_@	c #867267",
":@	c #AA8F7B",
"<@	c #C8A889",
"[@	c #D9B489",
"}@	c #D6AE79",
"|@	c #E2B679",
"1@	c #EBBA79",
"2@	c #E7B471",
"3@	c #EEB978",
"4@	c #EAB579",
"5@	c #BE966A",
"6@	c #5F462E",
"7@	c #2E1D0B",
"8@	c #BAAC9E",
"9@	c #5F646D",
"0@	c #20252E",
"a@	c #282F39",
"b@	c #252C36",
"c@	c #161D28",
"d@	c #1E2125",
"e@	c #3C3832",
"f@	c #574F46",
"g@	c #827870",
"h@	c #AA9C95",
"i@	c #BCA99F",
"j@	c #C0A795",
"k@	c #C2A387",
"l@	c #CFAC82",
"m@	c #D5AD78",
"n@	c #E1B375",
"o@	c #EDBC78",
"p@	c #F3BB76",
"q@	c #F1B56F",
"r@	c #F0B472",
"s@	c #DAAB7B",
"t@	c #83664B",
"u@	c #49341F",
"v@	c #C7B3A2",
"w@	c #FFF9EB",
"x@	c #F8FCFF",
"y@	c #CFD4D8",
"z@	c #74797F",
"A@	c #1F252B",
"B@	c #131A21",
"C@	c #141922",
"D@	c #0B1019",
"E@	c #313640",
"F@	c #5A5B5E",
"G@	c #8A8279",
"H@	c #9A8E81",
"I@	c #A99B91",
"J@	c #B09F95",
"K@	c #B39E91",
"L@	c #B89D8A",
"M@	c #C0A184",
"N@	c #CAA87E",
"O@	c #DDB680",
"P@	c #E5B36D",
"Q@	c #F5BB74",
"R@	c #F3B66D",
"S@	c #F2B26C",
"T@	c #EBB984",
"U@	c #A68666",
"V@	c #6A5039",
"W@	c #D6C7B4",
"X@	c #FFFEF0",
"Y@	c #A3A9B0",
"Z@	c #474D54",
"`@	c #1C2128",
" #	c #11151A",
".#	c #0E0F15",
"+#	c #212125",
"@#	c #514F53",
"##	c #757275",
"$#	c #948C8A",
"%#	c #9B8C7D",
"&#	c #AA9582",
"*#	c #B39D8A",
"=#	c #B69E88",
"-#	c #B89C82",
";#	c #BD9D7E",
">#	c #C4A17A",
",#	c #D1AB7B",
"'#	c #DBB079",
")#	c #DCAD70",
"!#	c #E0AD6A",
"~#	c #EDB66F",
"{#	c #F1B66E",
"]#	c #EDB36D",
"^#	c #EBBB7F",
"/#	c #BA986C",
"(#	c #8F7453",
"_#	c #E4DBC7",
":#	c #EFF4FA",
"<#	c #D2DBE4",
"[#	c #5C646F",
"}#	c #323A45",
"|#	c #111921",
"1#	c #11171E",
"2#	c #12151A",
"3#	c #212024",
"4#	c #4A4748",
"5#	c #7C7573",
"6#	c #918886",
"7#	c #94867D",
"8#	c #A18B78",
"9#	c #AA9078",
"0#	c #B2967B",
"a#	c #B8997B",
"b#	c #BC9B78",
"c#	c #C29E75",
"d#	c #CAA172",
"e#	c #D5A873",
"f#	c #D9AA70",
"g#	c #DDAC6F",
"h#	c #E2B06E",
"i#	c #E9B36F",
"j#	c #ECB56D",
"k#	c #ECB56F",
"l#	c #E7BA78",
"m#	c #BE9D66",
"n#	c #AE946D",
"o#	c #F0E7D3",
"p#	c #E2E9F1",
"q#	c #4E5760",
"r#	c #252E37",
"s#	c #161F29",
"t#	c #071019",
"u#	c #090E16",
"v#	c #191B21",
"w#	c #3D3C40",
"x#	c #696665",
"y#	c #88807D",
"z#	c #8D8381",
"A#	c #8D7F76",
"B#	c #9A8370",
"C#	c #A38872",
"D#	c #AC8F75",
"E#	c #B39374",
"F#	c #B89471",
"G#	c #BF976F",
"H#	c #C89B6C",
"I#	c #D2A16D",
"J#	c #D8A56B",
"K#	c #DEA96C",
"L#	c #E5AE6C",
"M#	c #EBB16D",
"N#	c #ECB269",
"O#	c #EBB169",
"P#	c #E2B270",
"Q#	c #B99862",
"R#	c #CAB18A",
"S#	c #FBF3DF",
"T#	c #BDC1CA",
"U#	c #373E46",
"V#	c #1A2129",
"W#	c #09121A",
"X#	c #111821",
"Y#	c #090F17",
"Z#	c #0A0E14",
"`#	c #181A1E",
" $	c #414044",
".$	c #797471",
"+$	c #7C7471",
"@$	c #83756C",
"#$	c #8E7A6A",
"$$	c #9A806B",
"%$	c #A4876F",
"&$	c #AC8B6E",
"*$	c #B38D6C",
"=$	c #BB9169",
"-$	c #C49567",
";$	c #CB9963",
">$	c #D39C62",
",$	c #DCA364",
"'$	c #E4A864",
")$	c #E9AB65",
"!$	c #E9AB62",
"~$	c #DBAC6A",
"{$	c #BD9F6B",
"]$	c #DFCFAA",
"^$	c #FFF9E7",
"/$	c #BFC4C8",
"($	c #2B3036",
"_$	c #060B11",
":$	c #10151B",
"<$	c #1C232A",
"[$	c #01050E",
"}$	c #0D1116",
"|$	c #14161B",
"1$	c #383739",
"2$	c #5B5857",
"3$	c #66615E",
"4$	c #6C6461",
"5$	c #776C65",
"6$	c #897667",
"7$	c #947B68",
"8$	c #9F836D",
"9$	c #A9876D",
"0$	c #AF8A69",
"a$	c #B88D66",
"b$	c #C39364",
"c$	c #C7915A",
"d$	c #CF9559",
"e$	c #DA9D5F",
"f$	c #E3A25E",
"g$	c #E7A45E",
"h$	c #E8A45A",
"i$	c #E8A55B",
"j$	c #DDAA6B",
"k$	c #D2B485",
"l$	c #EEE5C4",
"m$	c #FFFAE9",
"n$	c #D1D4D9",
"o$	c #36393E",
"p$	c #161B1F",
"q$	c #1D2226",
"r$	c #0F1319",
"s$	c #080C11",
"t$	c #1C2026",
"u$	c #090C10",
"v$	c #0D0F13",
"w$	c #141417",
"x$	c #302F30",
"y$	c #4D4A49",
"z$	c #595552",
"A$	c #635E5B",
"B$	c #716760",
"C$	c #837167",
"D$	c #8E7768",
"E$	c #997E6C",
"F$	c #A2826A",
"G$	c #A98464",
"H$	c #B58762",
"I$	c #BF8C5F",
"J$	c #C38B56",
"K$	c #CC9055",
"L$	c #D99858",
"M$	c #E09D59",
"N$	c #E39D57",
"O$	c #E59F56",
"P$	c #E8A35A",
"Q$	c #DBA86D",
"R$	c #DFC39A",
"S$	c #FAF1D6",
"T$	c #FFF9EA",
"U$	c #C2C7CB",
"V$	c #393D41",
"W$	c #1F2326",
"X$	c #05090C",
"Y$	c #14181B",
"Z$	c #070B0F",
"`$	c #07080D",
" %	c #141519",
".%	c #0D0E10",
"+%	c #101012",
"@%	c #211F21",
"#%	c #393535",
"$%	c #4C4745",
"%%	c #5B5754",
"&%	c #69625C",
"*%	c #77685F",
"=%	c #826E60",
"-%	c #8D7563",
";%	c #967760",
">%	c #9F795A",
",%	c #A97C56",
"'%	c #B38053",
")%	c #BD8250",
"!%	c #C5884E",
"~%	c #D38F51",
"{%	c #D79250",
"]%	c #DA934F",
"^%	c #DE9551",
"/%	c #E29C58",
"(%	c #D4A26C",
"_%	c #E4CDAA",
":%	c #FFF9E3",
"<%	c #D3DAE0",
"[%	c #565B60",
"}%	c #13181B",
"|%	c #0F1316",
"1%	c #0A0D0E",
"2%	c #171A1D",
"3%	c #18191A",
"4%	c #0F1011",
"5%	c #0C0C0E",
"6%	c #101010",
"7%	c #0D0C0C",
"8%	c #121111",
"9%	c #24201F",
"0%	c #3B3736",
"a%	c #514D4A",
"b%	c #5F5A56",
"c%	c #6B5D55",
"d%	c #756256",
"e%	c #81695B",
"f%	c #8A6C57",
"g%	c #916D50",
"h%	c #9D714E",
"i%	c #A7744A",
"j%	c #B27847",
"k%	c #BC7E49",
"l%	c #C7864B",
"m%	c #CE8B4D",
"n%	c #D08C4C",
"o%	c #D38F4E",
"p%	c #D89656",
"q%	c #D2A372",
"r%	c #E8D8BB",
"s%	c #FFFDEB",
"t%	c #B4BCBF",
"u%	c #697075",
"v%	c #12171C",
"w%	c #161A1D",
"x%	c #191B1C",
"y%	c #151616",
"z%	c #111112",
"A%	c #0E0E0D",
"B%	c #0B0B0A",
"C%	c #0D0B0B",
"D%	c #0F0E0D",
"E%	c #11100E",
"F%	c #141311",
"G%	c #21201E",
"H%	c #353432",
"I%	c #484340",
"J%	c #5C504A",
"K%	c #615148",
"L%	c #725D50",
"M%	c #7B604C",
"N%	c #7A593D",
"O%	c #906644",
"P%	c #96653D",
"Q%	c #986234",
"R%	c #A76D3B",
"S%	c #B87B46",
"T%	c #C3844B",
"U%	c #C7884F",
"V%	c #CD8F54",
"W%	c #D2975E",
"X%	c #E1B790",
"Y%	c #FFECD8",
"Z%	c #D3D7DB",
"`%	c #A1A5A9",
" &	c #43494C",
".&	c #21262A",
"+&	c #202325",
"@&	c #1C1E1D",
"#&	c #151615",
"$&	c #0D0B08",
"%&	c #0F0D0A",
"&&	c #100D0A",
"*&	c #0F0C0A",
"=&	c #0E0D0A",
"-&	c #0B0A08",
";&	c #0E0D0B",
">&	c #1D1C1B",
",&	c #302D2A",
"'&	c #453D38",
")&	c #50433A",
"!&	c #5B4A3E",
"~&	c #634C3A",
"{&	c #65472D",
"]&	c #6B4424",
"^&	c #6D411B",
"/&	c #7F4D23",
"(&	c #956032",
"_&	c #AB7646",
":&	c #B78150",
"<&	c #BA8453",
"[&	c #C38E5C",
"}&	c #D3A272",
"|&	c #EACCAF",
"1&	c #FFF9E9",
"2&	c #96989C",
"3&	c #6A6E71",
"4&	c #2B2E30",
"5&	c #1E2224",
"6&	c #1D2023",
"7&	c #181A1D",
"8&	c #131415",
"9&	c #111311",
"0&	c #10100F",
"a&	c #0F0E0B",
"b&	c #110E0B",
"c&	c #120E0A",
"d&	c #140F0B",
"e&	c #15100C",
"f&	c #100B08",
"g&	c #0C0804",
"h&	c #0F0E09",
"i&	c #131210",
"j&	c #0F0F0D",
"k&	c #0E0F0F",
"l&	c #151412",
"m&	c #25201B",
"n&	c #372C23",
"o&	c #3E2F22",
"p&	c #442F1C",
"q&	c #4A2F16",
"r&	c #462409",
"s&	c #4E2805",
"t&	c #71451F",
"u&	c #8B5D34",
"v&	c #A87C53",
"w&	c #B88B63",
"x&	c #B0875E",
"y&	c #BC936C",
"z&	c #EAC7A4",
"A&	c #FEF0D9",
"B&	c #DFE0E5",
"C&	c #A8A9AE",
"D&	c #3E3F43",
"E&	c #535458",
"F&	c #1E1F21",
"G&	c #171819",
"H&	c #151717",
"I&	c #111212",
"J&	c #080907",
"K&	c #090A07",
"L&	c #0C0B09",
"M&	c #0E0D09",
"N&	c #110E09",
"O&	c #120D08",
"P&	c #130D07",
"Q&	c #140E08",
"R&	c #100B06",
"S&	c #090500",
"T&	c #0A0804",
"U&	c #0C0C0A",
"V&	c #0A0C0B",
"W&	c #0D0E0C",
"X&	c #0C0903",
"Y&	c #281F17",
"Z&	c #312418",
"`&	c #281805",
" *	c #2E1800",
".*	c #311400",
"+*	c #502E10",
"@*	c #765230",
"#*	c #926D4A",
"$*	c #9B7956",
"%*	c #997857",
"&*	c #B29475",
"**	c #E7CEB0",
"=*	c #FDF3DA",
"-*	c #FFFDEC",
";*	c #D4D7E0",
">*	c #8E9198",
",*	c #73737A",
"'*	c #434449",
")*	c #27282B",
"!*	c #1F2022",
"~*	c #111110",
"{*	c #121311",
"]*	c #151513",
"^*	c #121211",
"/*	c #1E1E1C",
"(*	c #1B1A19",
"_*	c #141310",
":*	c #0D0C07",
"<*	c #0C0802",
"[*	c #0C0700",
"}*	c #0F0800",
"|*	c #0B0400",
"1*	c #0B0600",
"2*	c #141009",
"3*	c #110F0B",
"4*	c #0A0A06",
"5*	c #070906",
"6*	c #080B0C",
"7*	c #0C0E0C",
"8*	c #15140E",
"9*	c #161006",
"0*	c #1B1108",
"a*	c #190B00",
"b*	c #331E08",
"c*	c #3A2007",
"d*	c #4D3013",
"e*	c #614324",
"f*	c #755839",
"g*	c #91775B",
"h*	c #B59D84",
"i*	c #E3D1BB",
"j*	c #FFFBE6",
"k*	c #FFFFED",
"l*	c #BEC2CF",
"m*	c #8C909B",
"n*	c #535762",
"o*	c #2A2E37",
"p*	c #191C23",
"q*	c #1B1D22",
"r*	c #151619",
"s*	c #141517",
"t*	c #121113",
"u*	c #0B0909",
"v*	c #23221F",
"w*	c #666562",
"x*	c #B1B1AD",
"y*	c #C1C1BF",
"z*	c #B7B7B5",
"A*	c #A5A4A0",
"B*	c #908F8A",
"C*	c #837E77",
"D*	c #79746B",
"E*	c #766E66",
"F*	c #7C746B",
"G*	c #837E75",
"H*	c #736E67",
"I*	c #504E49",
"J*	c #393A35",
"K*	c #272825",
"L*	c #181C1D",
"M*	c #080A08",
"N*	c #15150F",
"O*	c #0B0700",
"P*	c #1E1509",
"Q*	c #1B0D00",
"R*	c #35230C",
"S*	c #422D13",
"T*	c #50371B",
"U*	c #6A5035",
"V*	c #836B52",
"W*	c #C0AC95",
"X*	c #F6F0DC",
"Y*	c #FEFCEB",
"Z*	c #FFFCEF",
"`*	c #32373E",
" =	c #181D22",
".=	c #1D2026",
"+=	c #1E2327",
"@=	c #161A1E",
"#=	c #121316",
"$=	c #131316",
"%=	c #0F0F10",
"&=	c #373736",
"*=	c #8E8D8B",
"==	c #CBCDCC",
"-=	c #7D7F7E",
";=	c #1F211F",
">=	c #0D0E08",
",=	c #403E36",
"'=	c #787368",
")=	c #493E31",
"!=	c #322514",
"~=	c #574734",
"{=	c #998771",
"]=	c #BDAB97",
"^=	c #EEDCCB",
"/=	c #FAF6E5",
"(=	c #F8F5E9",
"_=	c #191C13",
":=	c #1D2018",
"<=	c #1B1E16",
"[=	c #12150D",
"}=	c #11140E",
"|=	c #20201B",
"1=	c #5D5E58",
"2=	c #ADAEA9",
"3=	c #DBDCD8",
"4=	c #E8E8E8",
"5=	c #B1B1B1",
"6=	c #70706E",
"7=	c #6C6C69",
"8=	c #DBD8D4",
"9=	c #D0CCC8",
"0=	c #79756E",
"a=	c #58534C",
"b=	c #A9A39C",
"c=	c #F1EBE5",
"d=	c #1F2210",
"e=	c #1E2012",
"f=	c #1F2112",
"g=	c #3F4134",
"h=	c #8B8D82",
"i=	c #D1D2CA",
"j=	c #F3F4EC",
"k=	c #969696",
"l=	c #787878",
"m=	c #DFDFDF",
"n=	c #F5F5F5",
"o=	c #B3B3B3",
"p=	c #646464",
"q=	c #8D8D8D",
"r=	c #232517",
"s=	c #696B5E",
"t=	c #BFC1B4",
"u=	c #FEFFF5",
"v=	c #ECECEC",
"w=	c #ABABAB",
"x=	c #838383",
"y=	c #D7D7D7",
"z=	c #D1D1D1",
"A=	c #3A3A3A",
"B=	c #AEB0A3",
"C=	c #F4F6EB",
"D=	c #E3E3E3",
"E=	c #A4A4A4",
"F=	c #6F6F6F",
"G=	c #9E9E9E",
"H=	c #5B5B5B",
"I=	c #3D3D3D",
"J=	c #111111",
"K=	c #010101",
"                                                                      .       +     @           ",
"                                                                          # $ % & * = -         ",
"                                                                        ; > , ' ) ! ~ { ] ^ / ( ",
"                                                                      _ : < [ } | } 1 2 3 4 5 6 ",
"                                                                    7 8 9 0 a b c d e f g h i   ",
"                                                                  j k l m 9 n o o p q r s t     ",
"                                                                  u v w x y z A z B C D E     F ",
"                                                                  G H I J K L M N O P Q R   S   ",
"                                                                j T U V W V X Y Z `  ...+.      ",
"                                                                @.#.$.%.&.*.=.-.;.>.,.'.).    !.",
"                                                                ~.{.].^./.(._.:.<.[.}.|.        ",
"                                                                1.2.3.4.5.6.7.8.9.0.a.b.        ",
"                                                                c.d.e.f.g.h.i.j.k.l.m.n.        ",
"                                                        o.    p.q.r.s.t.u.v.w.x.y.z.A.B.        ",
"                                                          C.D.E.F.G.H.I.J.K.L.M.N.O.P.Q.        ",
"                                                          R.S.T.U.V.W.X.Y.Z.`. +.+++@+#+$+      ",
"                                                        %+&+*+=+-+;+>+,+'+)+!+~+{+]+^+/+(+      ",
"                                                    _+:+<+[+}+|+1+2+3+4+5+6+7+8+9+0+a+b+c+      ",
"                                          d+        e+f+g+h+i+j+k+l+m+n+o+p+q+r+s+t+u+v+w+      ",
"                                            x+    y+z+A+B+C+D+E+F+G+H+I+J+K+L+M+N+O+P+Q+R+S+    ",
"                                                T+U+V+W+X+Y+Z+`+ @.@+@@@#@$@%@&@*@=@-@;@>@,@    ",
"                                              '@)@!@~@{@]@^@/@(@_@:@<@[@}@|@1@2@3@4@5@6@7@8@    ",
"                                            9@0@a@b@c@d@e@f@g@h@i@j@k@l@m@n@o@p@q@r@s@t@u@v@w@  ",
"                                      x@y@z@A@B@C@D@E@F@G@H@I@J@K@L@M@N@O@n@P@Q@R@S@T@U@V@W@X@  ",
"                                      Y@Z@`@ #.#+#@###$#%#&#*#=#-#;#>#,#'#)#!#~#{#]#^#/#(#_#    ",
"                            :#    <#[#}#|#1#2#3#4#5#6#7#8#9#0#a#b#c#d#e#f#g#h#i#j#k#l#m#n#o#    ",
"                                p#q#r#s#t#u#v#w#x#y#z#A#B#C#D#E#F#G#H#I#J#K#L#M#N#O#P#Q#R#S#    ",
"                              T#U#V#W#X#Y#Z#`# $x#.$+$@$#$$$%$&$*$=$-$;$>$,$'$)$!$!$~${$]$^$    ",
"                            /$($_$:$<$[$:$}$|$1$2$3$4$5$6$7$8$9$0$a$b$c$d$e$f$g$h$i$j$k$l$m$    ",
"                          n$o$p$q$r$s$t$u$v$w$x$y$z$A$B$C$D$E$F$G$H$I$J$K$L$M$N$O$P$Q$R$S$T$    ",
"                        U$V$W$X$Y$Z$X$`$ %.%+%@%#%$%%%&%*%=%-%;%>%,%'%)%!%~%{%]%^%/%(%_%:%      ",
"                      <%[%}%|%|%1%2%3%4%5%6%7%8%9%0%a%b%c%d%e%f%g%h%i%j%k%l%m%n%o%p%q%r%s%      ",
"                    t%u%v%w%x%3%y%z%A%B%C%D%E%E%F%G%H%I%J%K%L%M%N%O%P%Q%R%S%T%U%V%W%X%Y%        ",
"                Z%`% &p$.&+&@&#&K B%$&%&&&*&%&=&-&;&>&,&'&)&!&~&{&]&^&/&(&_&:&<&[&}&|&1&        ",
"              2&3&4&5&6&7&8&9&0&a&b&c&d&e&f&g&h&i&j&k&l&m&n&o&p&q&r&s&t&u&v&w&x&y&z&A&          ",
"        B&C&D&E&F&G&H&I&z%J&K&L&M&N&O&P&Q&R&S&T&;&U&V&W&X&Y&Z&`& *.*+*@*#*$*%*&***=*-*          ",
"  j ;*>*,*'*)*!*G&~*{*]*^*/*(*_*:*<*[*}*|*1*2*3*4*5*6*7*8*9*0*a*b*c*d*e*f*g*h*i*j*k*            ",
"l*m*n*o*p*q*r*s*t*u*v*w*x*y*z*A*B*C*D*E*F*G*H*I*J*K*L*M*N*O*P*Q*R*S*T*U*V*W*X*Y*Z*              ",
"`* =.=+=@=#=$=%=&=*=                              ==-=;=>=,='=)=!=~={=]=^=/=w@(=                ",
"_=:=<=[=}=|=1=2=3=                                4=  5=6=7=8=9=0=a=b=c=                        ",
"d=e=f=g=h=i=j=                                            k=l=m=n=o=p=q=                        ",
"r=s=t=u=                                            v=      w=x=y=j z=A=                        ",
"B=C=                                                      D=  E=F=G=H=I=                        ",
"                                                                  J=K=                          ",
"                                                                                                ",
"                                                                                                ",
"                                                                                                ",
"                                                                                                "};
